<svg width="0" height="0" class="hidden">
  <symbol fill="none" xmlns="http://www.w3.org/2000/svg" viewBox="0 0 24 24" id="linkedin">
    <path d="M13.26 9.3592V10.1097L13.9526 9.82061L15.6249 9.12253C16.457 8.77521 17.3492 8.55658 18.2518 8.47665C21.0688 8.22721 23.5 10.3839 23.5 13.0974V23.5H19.06V15.1169C19.06 14.36 18.7513 13.6369 18.2059 13.1058C17.6611 12.575 16.9249 12.2792 16.16 12.2792C15.3951 12.2792 14.6589 12.575 14.1141 13.1058C13.5687 13.6369 13.26 14.36 13.26 15.1169V23.5H8.82V7.98052H13.26V9.3592ZM0.5 2.64935C0.5 1.47461 1.48144 0.5 2.72 0.5C3.95855 0.5 4.94 1.47462 4.94 2.64935C4.94 3.82407 3.95855 4.7987 2.72 4.7987C1.48144 4.7987 0.5 3.82408 0.5 2.64935ZM0.5 23.5V7.98052H4.94V23.5H0.5Z" fill="#153416" stroke="black"></path>
  </symbol>
  <symbol fill="none" xmlns="http://www.w3.org/2000/svg" viewBox="0 0 24 24" id="instagram">
    <path d="M11.9997 7.7643C9.65654 7.7643 7.75696 9.6607 7.75696 12C7.75696 14.3392 9.65654 16.2356 11.9997 16.2356C14.3429 16.2356 16.2425 14.3392 16.2425 12C16.2425 9.6607 14.3429 7.7643 11.9997 7.7643Z" fill="#153416"></path>
    <path fill-rule="evenodd" clip-rule="evenodd" d="M5.17177 0.376693C9.67323 -0.125564 14.3268 -0.125564 18.8282 0.376693C21.3065 0.653209 23.3055 2.60263 23.5963 5.08543C24.1346 9.67952 24.1346 14.3205 23.5963 18.9145C23.3055 21.3974 21.3065 23.3469 18.8282 23.6233C14.3268 24.1256 9.67323 24.1256 5.17177 23.6233C2.69347 23.3469 0.694548 21.3974 0.403664 18.9145C-0.134555 14.3205 -0.134555 9.67952 0.403664 5.08543C0.694548 2.60263 2.69347 0.653209 5.17177 0.376693ZM18.5273 4.18035C17.8063 4.18035 17.2218 4.76385 17.2218 5.48362C17.2218 6.2034 17.8063 6.7869 18.5273 6.7869C19.2483 6.7869 19.8328 6.2034 19.8328 5.48362C19.8328 4.76385 19.2483 4.18035 18.5273 4.18035ZM5.799 12C5.799 8.58106 8.57527 5.80944 12 5.80944C15.4247 5.80944 18.2009 8.58106 18.2009 12C18.2009 15.419 15.4247 18.1906 12 18.1906C8.57527 18.1906 5.799 15.419 5.799 12Z" fill="#153416"></path>
  </symbol>
  <symbol fill="none" xmlns="http://www.w3.org/2000/svg" viewBox="0 0 14 24" id="facebook">
    <path d="M10.1034 0C8.41159 0 6.78897 0.640807 5.59255 1.78143C4.39628 2.92207 3.72414 4.46909 3.72414 6.08219V9.46849H0.310345C0.138952 9.46849 0 9.60092 0 9.76438V14.2356C0 14.3991 0.138952 14.5315 0.310345 14.5315H3.72414V23.7041C3.72414 23.8676 3.86309 24 4.03448 24H8.72414C8.89559 24 9.03448 23.8676 9.03448 23.7041V14.5315H12.4785C12.621 14.5315 12.7451 14.4391 12.7796 14.3074L13.952 9.83619C14.001 9.64945 13.8528 9.46849 13.6509 9.46849H9.03448V6.08219C9.03448 5.81189 9.14717 5.55265 9.34759 5.36152C9.548 5.17039 9.82 5.06301 10.1034 5.06301H13.6897C13.8611 5.06301 14 4.93053 14 4.76712V0.29589C14 0.13248 13.8611 0 13.6897 0H10.1034Z" fill="#153416"></path>
  </symbol>
</svg>